<?xml version="1.0" encoding="UTF-8" standalone="no"?>
<!-- Created with Inkscape (http://www.inkscape.org/) -->

<svg
   width="86.666656mm"
   height="80mm"
   viewBox="0 0 86.666656 80"
   version="1.1"
   id="svg5"
   inkscape:version="1.1.2 (0a00cf5339, 2022-02-04, custom)"
   sodipodi:docname="SelectHtml.svg"
   inkscape:export-filename="A:\SelectHtml\SelectHtml.png"
   inkscape:export-xdpi="96"
   inkscape:export-ydpi="96"
   xmlns:inkscape="http://www.inkscape.org/namespaces/inkscape"
   xmlns:sodipodi="http://sodipodi.sourceforge.net/DTD/sodipodi-0.dtd"
   xmlns="http://www.w3.org/2000/svg"
   xmlns:svg="http://www.w3.org/2000/svg">
  <sodipodi:namedview
     id="namedview7"
     pagecolor="#ffffff"
     bordercolor="#666666"
     borderopacity="1.0"
     inkscape:pageshadow="2"
     inkscape:pageopacity="0.0"
     inkscape:pagecheckerboard="0"
     inkscape:document-units="mm"
     showgrid="false"
     width="80mm"
     inkscape:zoom="2"
     inkscape:cx="149.25"
     inkscape:cy="29.5"
     inkscape:window-width="2256"
     inkscape:window-height="1398"
     inkscape:window-x="-11"
     inkscape:window-y="-11"
     inkscape:window-maximized="1"
     inkscape:current-layer="layer6" />
  <defs
     id="defs2" />
  <g
     inkscape:groupmode="layer"
     id="layer2"
     inkscape:label="Background"
     style="display:none">
    <ellipse
       id="path13596"
       cx="42.994793"
       cy="40.679688"
       rx="39.952084"
       ry="37.769272"
       style="fill:#00a000;stroke-width:0.264583" />
    <path
       style="fill:#6cdcfc;stroke-width:1"
       d="M 154.25,295.94301 C 122.05776,294.4798 90.15661,282.45348 64.75,262.20266 58.864115,257.51121 46.188403,244.7152 41.765467,239 26.415814,219.16559 16.892203,197.28212 13.151292,173.25 c -1.570359,-10.0882 -1.570359,-28.91181 0,-39 C 16.892203,110.21788 26.415814,88.334405 41.765467,68.5 46.188403,62.7848 58.864115,49.988793 64.75,45.297338 72.565725,39.067666 83.670335,32.066803 93,27.487217 c 22.56763,-11.07761 44.08727,-16.046021 69.5,-16.046021 31.91141,0 60.68514,8.605765 86.97714,26.013478 l 4.97715,3.295326 -6.81198,0.138849 -6.81198,0.138848 -7.25591,-7.245726 C 229.58366,29.796822 225.79684,26.408304 225.15925,26.25193 224.52167,26.095556 202.625,26.031151 176.5,26.108807 L 129,26.25 l -2.8461,1.397641 c -4.41047,2.165856 -7.59757,5.343069 -9.77096,9.740651 L 114.5,41.198196 V 127.2241 213.25 l 1.5983,3.26553 c 2.93956,6.00592 8.42186,10.21793 14.92166,11.46421 2.16391,0.41491 20.30188,0.53016 66.23004,0.42083 l 63.25,-0.15057 2.6096,-1.07111 c 3.92685,-1.61178 7.35786,-4.3797 9.61062,-7.75322 3.77375,-5.65124 3.52978,-0.4858 3.52978,-74.73387 0,-42.86492 -0.17696,-67.092125 -0.49617,-67.93173 -0.2729,-0.717765 -3.41704,-4.27616 -6.98699,-7.90755 L 262.276,62.25 l -0.013,-7.676493 -0.013,-7.676491 3.46463,3.071627 c 20.90105,18.530182 36.70011,44.241692 43.33969,70.531357 3.03735,12.02648 3.87612,19.13355 3.89465,33 0.0175,13.10478 -0.56862,18.96428 -2.96452,29.6364 -4.51399,20.10672 -14.25213,40.21541 -27.53763,56.8636 -4.36323,5.46759 -16.72541,17.83029 -22.19682,22.19773 -11.32288,9.03826 -29.40425,19.36272 -42,23.98202 -20.75225,7.61057 -41.55186,10.78357 -64,9.76326 z M 91.597835,195.022 c 2.191255,-1.33609 3.37011,-3.30824 3.426545,-5.73238 0.0261,-1.12179 0.440865,-2.79026 0.921665,-3.7077 0.5167,-0.98594 0.82462,-2.51945 0.75298,-3.75 -0.06979,-1.19865 0.23351,-2.76081 0.714885,-3.68209 0.45985,-0.8801 0.83609,-2.39885 0.83609,-3.375 0,-1.77304 0.0025,-1.77483 2.27483,-1.77483 4.24636,0 7.2195,-2.75109 7.2233,-6.68383 10e-4,-1.58098 -0.35232,-2.28801 -1.93931,-3.875 L 103.86764,160.5 h -8.2807 -8.28071 l 1.026025,-2.31951 c 1.7612,-3.98148 0.39233,-7.45126 -3.43837,-8.71551 -2.793545,-0.92196 -4.859615,-0.22584 -7.00075,2.35876 -4.636825,5.59718 -6.55504,7.37647 -9.977305,9.25472 -4.746805,2.6052 -7.419386,5.28262 -9.313614,9.3305 -3.542089,7.56927 -1.076096,17.07352 5.417279,20.8789 5.40386,3.16687 11.683785,4.57878 20.730505,4.6608 4.37901,0.0397 5.515085,-0.11403 6.847835,-0.92666 z"
       id="path91"
       transform="scale(0.26458333)" />
  </g>
  <g
     inkscape:groupmode="layer"
     id="layer5"
     inkscape:label="globe"
     style="display:inline">
    <text
       xml:space="preserve"
       style="font-size:50.8px;line-height:1.25;font-family:sans-serif;stroke-width:0.264583"
       x="-2.2489581"
       y="51.461456"
       id="text9311"><tspan
         sodipodi:role="line"
         id="tspan9309"
         style="font-size:50.8px;fill:#729fcf;stroke-width:0.264583"
         x="-2.2489581"
         y="51.461456">🌐</tspan></text>
  </g>
  <g
     inkscape:groupmode="layer"
     id="layer4"
     inkscape:label="tab"
     style="display:inline">
    <text
       xml:space="preserve"
       style="font-size:50.8px;line-height:1.25;font-family:sans-serif;fill:#cc0000;stroke-width:0.264583"
       x="12.700001"
       y="63.36771"
       id="text2273"><tspan
         sodipodi:role="line"
         id="tspan2271"
         style="font-size:50.8px;fill:#cc0000;stroke-width:0.264583"
         x="12.700001"
         y="63.36771">📑</tspan></text>
  </g>
  <g
     inkscape:groupmode="layer"
     id="layer6"
     inkscape:label="top"
     style="display:inline">
    <text
       xml:space="preserve"
       style="font-size:12.7px;line-height:1.25;font-family:sans-serif;fill:#729fcf;stroke-width:0.264583"
       x="29.897917"
       y="10.451041"
       id="text14540"><tspan
         sodipodi:role="line"
         id="tspan14538"
         style="fill:#729fcf;stroke-width:0.264583"
         x="29.897917"
         y="10.451041">.</tspan></text>
    <path
       style="fill:#ffffff;stroke-width:1"
       d="m 100.25,245 c -0.991526,-0.99153 -1,-1.66667 -1,-79.67251 0,-75.581645 0.03592,-78.705013 0.91437,-79.499996 C 100.99888,85.07227 104.5125,85 140.39545,85 h 39.3167 l 0.14392,16.875 c 0.14277,16.73937 0.15325,16.88807 1.30379,18.50115 0.63792,0.89438 1.97005,2.24438 2.96028,3 l 1.80041,1.37385 16.90994,0.14391 16.90995,0.1439 0.32974,1.31381 c 0.18136,0.72259 0.1791,5.32658 -0.005,10.23109 l -0.3348,8.91729 h 9.52587 c 7.46688,0 9.9262,0.16727 11.37798,0.77386 2.37306,0.99153 3.96269,2.4878 5.19378,4.88876 0.89273,1.74106 0.96685,2.77967 0.82634,11.58007 l -0.15435,9.66747 -1.54753,1.91992 c -0.85115,1.05595 -2.42615,2.42247 -3.5,3.0367 -1.83779,1.05117 -2.53248,1.11725 -11.82747,1.125 l -9.875,0.008 v 32.97165 32.97164 l -1.11126,0.77836 c -0.9903,0.69363 -7.43912,0.77835 -59.25,0.77835 -57.47207,0 -58.15021,-0.0115 -59.13874,-1 z m 71.84278,-40.08716 c 1.43514,-1.34825 1.50605,-3.56401 0.15722,-4.91284 -0.97661,-0.97661 -1.66667,-1 -29.5,-1 -27.83333,0 -28.52339,0.0234 -29.5,1 -0.55556,0.55555 -1,1.66666 -1,2.5 0,0.83333 0.44444,1.94444 1,2.5 0.97648,0.97648 1.66667,1 29.34277,1 h 28.34278 z m 33.33979,-19.94913 c 1.82194,-1.43314 1.82194,-3.99428 0,-5.42742 C 204.12212,178.50549 203.87884,178.5 159.5,178.5 c -44.37884,0 -44.62212,0.006 -45.93257,1.03629 -0.95551,0.7516 -1.31743,1.4971 -1.31743,2.71371 0,1.21661 0.36192,1.9621 1.31743,2.71371 1.31045,1.0308 1.55373,1.03629 45.93257,1.03629 44.37884,0 44.62212,-0.006 45.93257,-1.03629 z m 34.09015,-13.69099 c 1.20134,-1.20133 1.22728,-1.3973 1.22728,-9.27272 0,-11.17087 0.81528,-10.5 -12.76015,-10.5 -6.88684,0 -10.66789,0.19328 -11.39772,0.58265 -2.13231,1.13758 -9.44566,7.62455 -9.87807,8.76187 -0.2495,0.65624 -0.25188,1.64847 -0.005,2.2965 0.42796,1.12564 8.5853,8.42956 10.04143,8.9909 0.4125,0.15902 5.42897,0.30689 11.14772,0.3286 10.39679,0.0394 10.39784,0.0393 11.625,-1.1878 z m -39.02021,-9.27337 0.002,-3.49935 H 157.3775 c -42.46084,0 -43.14297,0.0154 -44.12751,1 -0.55556,0.55555 -1,1.66666 -1,2.5 0,0.83333 0.44444,1.94444 1,2.5 0.98455,0.98455 1.66623,0.99999 44.125,0.99935 l 43.125,-5e-4 0.002,-3.49936 z m 5.15321,-17.51883 c 1.59094,-1.48219 1.4788,-4.10548 -0.23308,-5.45204 -1.32657,-1.04348 -1.35396,-1.04402 -46.19763,-0.91129 -43.32223,0.12823 -44.90659,0.16567 -45.92264,1.0853 -1.53653,1.3907 -1.40782,3.94533 0.26506,5.26122 1.31056,1.03089 1.55113,1.03629 46.15572,1.03629 44.43271,0 44.84818,-0.009 45.93257,-1.01948 z"
       id="path19012"
       transform="scale(0.26458333)" />
  </g>
</svg>
