<?xml version="1.0" encoding="UTF-8" standalone="no"?>
<!-- Created with Inkscape (http://www.inkscape.org/) -->

<svg
   width="86.666656mm"
   height="80mm"
   viewBox="0 0 86.666656 80"
   version="1.1"
   id="svg5"
   inkscape:version="1.1.2 (0a00cf5339, 2022-02-04, custom)"
   sodipodi:docname="SelectHtml.svg"
   inkscape:export-filename="A:\SelectHtml\SelectHtml.png"
   inkscape:export-xdpi="96"
   inkscape:export-ydpi="96"
   xmlns:inkscape="http://www.inkscape.org/namespaces/inkscape"
   xmlns:sodipodi="http://sodipodi.sourceforge.net/DTD/sodipodi-0.dtd"
   xmlns="http://www.w3.org/2000/svg"
   xmlns:svg="http://www.w3.org/2000/svg">
  <sodipodi:namedview
     id="namedview7"
     pagecolor="#ffffff"
     bordercolor="#666666"
     borderopacity="1.0"
     inkscape:pageshadow="2"
     inkscape:pageopacity="0.0"
     inkscape:pagecheckerboard="0"
     inkscape:document-units="mm"
     showgrid="false"
     width="80mm"
     inkscape:zoom="2"
     inkscape:cx="149.25"
     inkscape:cy="29.75"
     inkscape:window-width="2256"
     inkscape:window-height="1398"
     inkscape:window-x="-11"
     inkscape:window-y="-11"
     inkscape:window-maximized="1"
     inkscape:current-layer="layer1" />
  <defs
     id="defs2" />
  <g
     inkscape:groupmode="layer"
     id="layer2"
     inkscape:label="Background">
    <ellipse
       id="path13596"
       cx="42.994793"
       cy="40.679688"
       rx="39.952084"
       ry="37.769272"
       style="stroke-width:0.264583;fill:#00a000" />
    <path
       style="fill:#6cdcfc;stroke-width:1"
       d="M 154.25,295.94301 C 122.05776,294.4798 90.15661,282.45348 64.75,262.20266 58.864115,257.51121 46.188403,244.7152 41.765467,239 26.415814,219.16559 16.892203,197.28212 13.151292,173.25 c -1.570359,-10.0882 -1.570359,-28.91181 0,-39 C 16.892203,110.21788 26.415814,88.334405 41.765467,68.5 46.188403,62.7848 58.864115,49.988793 64.75,45.297338 72.565725,39.067666 83.670335,32.066803 93,27.487217 c 22.56763,-11.07761 44.08727,-16.046021 69.5,-16.046021 31.91141,0 60.68514,8.605765 86.97714,26.013478 l 4.97715,3.295326 -6.81198,0.138849 -6.81198,0.138848 -7.25591,-7.245726 C 229.58366,29.796822 225.79684,26.408304 225.15925,26.25193 224.52167,26.095556 202.625,26.031151 176.5,26.108807 L 129,26.25 l -2.8461,1.397641 c -4.41047,2.165856 -7.59757,5.343069 -9.77096,9.740651 L 114.5,41.198196 V 127.2241 213.25 l 1.5983,3.26553 c 2.93956,6.00592 8.42186,10.21793 14.92166,11.46421 2.16391,0.41491 20.30188,0.53016 66.23004,0.42083 l 63.25,-0.15057 2.6096,-1.07111 c 3.92685,-1.61178 7.35786,-4.3797 9.61062,-7.75322 3.77375,-5.65124 3.52978,-0.4858 3.52978,-74.73387 0,-42.86492 -0.17696,-67.092125 -0.49617,-67.93173 -0.2729,-0.717765 -3.41704,-4.27616 -6.98699,-7.90755 L 262.276,62.25 l -0.013,-7.676493 -0.013,-7.676491 3.46463,3.071627 c 20.90105,18.530182 36.70011,44.241692 43.33969,70.531357 3.03735,12.02648 3.87612,19.13355 3.89465,33 0.0175,13.10478 -0.56862,18.96428 -2.96452,29.6364 -4.51399,20.10672 -14.25213,40.21541 -27.53763,56.8636 -4.36323,5.46759 -16.72541,17.83029 -22.19682,22.19773 -11.32288,9.03826 -29.40425,19.36272 -42,23.98202 -20.75225,7.61057 -41.55186,10.78357 -64,9.76326 z M 91.597835,195.022 c 2.191255,-1.33609 3.37011,-3.30824 3.426545,-5.73238 0.0261,-1.12179 0.440865,-2.79026 0.921665,-3.7077 0.5167,-0.98594 0.82462,-2.51945 0.75298,-3.75 -0.06979,-1.19865 0.23351,-2.76081 0.714885,-3.68209 0.45985,-0.8801 0.83609,-2.39885 0.83609,-3.375 0,-1.77304 0.0025,-1.77483 2.27483,-1.77483 4.24636,0 7.2195,-2.75109 7.2233,-6.68383 10e-4,-1.58098 -0.35232,-2.28801 -1.93931,-3.875 L 103.86764,160.5 h -8.2807 -8.28071 l 1.026025,-2.31951 c 1.7612,-3.98148 0.39233,-7.45126 -3.43837,-8.71551 -2.793545,-0.92196 -4.859615,-0.22584 -7.00075,2.35876 -4.636825,5.59718 -6.55504,7.37647 -9.977305,9.25472 -4.746805,2.6052 -7.419386,5.28262 -9.313614,9.3305 -3.542089,7.56927 -1.076096,17.07352 5.417279,20.8789 5.40386,3.16687 11.683785,4.57878 20.730505,4.6608 4.37901,0.0397 5.515085,-0.11403 6.847835,-0.92666 z"
       id="path91"
       transform="scale(0.26458333)" />
  </g>
  <g
     inkscape:label="Layer 1"
     inkscape:groupmode="layer"
     id="layer1"
     transform="translate(-32.146873,2.3812499)">
    <text
       xml:space="preserve"
       style="font-size:50.8px;line-height:1.25;font-family:sans-serif;stroke-width:0.264583"
       x="48.94791"
       y="49.080212"
       id="text5969"><tspan
         sodipodi:role="line"
         id="tspan5967"
         style="stroke-width:0.264583"
         x="48.94791"
         y="49.080212">📄</tspan></text>
    <text
       xml:space="preserve"
       style="font-size:12.7px;line-height:1.25;font-family:sans-serif;stroke-width:0.264583"
       x="45.243748"
       y="47.228123"
       id="text11653"><tspan
         sodipodi:role="line"
         id="tspan11651"
         style="stroke-width:0.264583"
         x="45.243748"
         y="47.228123">👉</tspan></text>
    <path
       style="fill:#ffffff;stroke:#000000;stroke-width:0.264583px;stroke-linecap:butt;stroke-linejoin:miter;stroke-opacity:1"
       d="M 66.501029,8.4465067 90.916101,8.4231202"
       id="path13996" />
    <path
       style="fill:#ffffff;stroke-width:1"
       d="m 131.81075,213.64504 c -0.92909,-0.4577 -2.1095,-1.52133 -2.62313,-2.36361 -0.9019,-1.47898 -0.93395,-4.36753 -0.93575,-84.339 L 128.25,44.134859 129.28629,42.817429 130.32258,41.5 H 176.03629 221.75 l 0.012,15.625 c 0.007,8.59375 0.21608,16.505199 0.46561,17.580997 0.24952,1.075798 1.14822,2.650798 1.9971,3.5 l 1.54341,1.544003 17.10431,0.144312 c 16.67831,0.140719 17.13261,0.170908 18.24097,1.212158 l 1.13665,1.067844 v 63.960656 63.96066 l -1.07433,1.50875 c -2.17008,3.0476 1.28545,2.89667 -66.03461,2.88423 -56.47346,-0.0104 -61.78268,-0.0812 -63.33031,-0.84357 z M 207.8465,166.625 c 0.41333,-0.48125 0.89661,-1.28301 1.07396,-1.78168 0.3892,-1.09431 -0.81861,-3.60132 -1.94286,-4.03273 -0.44516,-0.17083 -13.34092,-0.31059 -28.65724,-0.31059 -30.25047,0 -29.56997,-0.0618 -30.27533,2.74859 -0.31972,1.27388 0.37214,3.17921 1.40482,3.86875 0.30258,0.20204 13.39653,0.37079 29.09765,0.375 26.57405,0.007 28.59946,-0.0528 29.299,-0.86734 z m 33.86721,-20.44243 c 1.3073,-1.66197 1.3073,-2.70318 0,-4.36514 L 240.67742,140.5 H 195.25 149.82258 l -1.03629,1.31743 C 148.21633,142.54201 147.75,143.52417 147.75,144 c 0,0.47583 0.46633,1.45798 1.03629,2.18257 L 149.82258,147.5 H 195.25 240.67742 Z m 0.0806,-20.11296 c 1.29958,-1.60508 1.20059,-3.3702 -0.27155,-4.84234 L 240.29545,120 h -44.49018 c -27.90844,0 -44.97153,0.18301 -45.78169,0.49103 -2.59761,0.98762 -2.74809,5.08926 -0.2341,6.38092 0.94409,0.48506 11.09721,0.59511 46.12979,0.5 L 240.83854,127.25 Z m -0.0806,-20.38704 c 1.36088,-1.73008 1.30833,-2.95598 -0.19099,-4.4553 L 240.29545,100 h -44.96733 c -42.09877,0 -45.0333,0.0558 -46.00141,0.875 -1.59471,1.3494 -1.81391,3.18859 -0.56868,4.77164 L 149.82258,107 H 195.25 240.67742 Z"
       id="path14072"
       transform="matrix(0.26458333,0,0,0.26458333,32.146873,-2.3812499)" />
    <path
       style="fill:#fc5454;stroke-width:1"
       d="m 80.5,192.00471 c -6.245151,-0.49259 -9.196816,-1.21775 -12.952093,-3.18205 -3.473406,-1.81685 -5.449302,-4.28528 -6.313361,-7.88708 -1.630284,-6.79578 1.470671,-12.74063 8.613358,-16.51267 3.12352,-1.64953 7.857496,-5.9345 10.548412,-9.54791 1.442746,-1.93735 3.095838,-2.43285 4.253684,-1.275 0.992517,0.99252 0.692776,2.34896 -1.194844,5.40715 -2.953114,4.78442 -3.096206,4.70196 8.663349,4.99285 9.465665,0.23415 10.173775,0.31746 11.169145,1.31408 0.87646,0.87757 0.96425,1.24812 0.50083,2.11401 -0.53585,1.00125 -0.99602,1.05624 -9.92519,1.18592 C 84.878663,168.7445 84.5,168.79044 84.5,169.75 c 0,0.75292 0.617705,1.21079 2.5,1.85311 1.375,0.46922 3.23125,0.86297 4.125,0.875 2.166275,0.0292 3.751507,1.59031 3.183529,3.13513 -0.364316,0.99089 -0.853473,1.16884 -3.811894,1.38676 -2.428058,0.17885 -3.542601,0.48709 -3.916295,1.08309 -0.916324,1.46143 0.446459,2.41691 3.447189,2.41691 2.14889,0 2.711331,0.17722 2.950114,0.92956 C 93.59793,183.38391 92.819299,184 89.729055,184 86.175574,184 84.25,184.66339 84.25,185.88762 c 0,1.55269 1.086323,2.11238 4.1,2.11238 2.708888,0 2.9,0.0773 2.9,1.17251 0,2.81837 -2.517252,3.48157 -10.75,2.8322 z"
       id="path14538"
       transform="matrix(0.26458333,0,0,0.26458333,32.146873,-2.3812499)"
       inkscape:export-filename="C:\Users\brian\OneDrive\Pictures\path14538.png"
       inkscape:export-xdpi="96"
       inkscape:export-ydpi="96" />
    <path
       style="fill:#fce94f;stroke-width:1"
       d="m 77.16009,191.44286 c -7.032499,-0.90675 -12.586501,-3.96963 -14.628379,-8.06715 -1.484164,-2.97832 -1.748012,-7.79181 -0.580296,-10.58655 1.097078,-2.62568 4.189841,-5.70994 8.548585,-8.52509 2.400391,-1.55033 5.533601,-4.23518 7.834941,-6.71379 3.008461,-3.24019 4.086027,-4.09476 5,-3.9653 1.735584,0.24583 1.718335,2.01322 -0.04981,5.10361 -1.947111,3.4032 -1.986852,4.644 -0.160134,4.99968 0.75625,0.14725 5.267423,0.41936 10.024828,0.60469 7.079065,0.27577 8.842055,0.49261 9.708385,1.19412 2.67698,2.16769 -0.53042,3.00603 -11.556559,3.02058 -6.26792,0.008 -7.660471,0.38837 -6.753322,1.84334 0.508698,0.8159 1.487398,1.18084 7.024927,2.6195 3.96904,1.03116 3.244837,3.26828 -1.233251,3.80959 -3.147728,0.3805 -4.090006,0.89828 -4.090006,2.24744 0,0.99726 0.60444,1.2538 4.125,1.75076 2.052674,0.28975 2.375,0.49231 2.375,1.4925 0,1.04077 -0.289378,1.1874 -2.875,1.45674 -4.64698,0.48408 -5.375,0.82737 -5.375,2.53451 0,1.29062 0.198942,1.50547 1.5,1.61999 4.075597,0.35873 4.817271,0.63892 4.656043,1.75893 -0.08582,0.59621 -0.718543,1.36757 -1.406043,1.71415 -1.401805,0.70668 -6.975959,0.74713 -12.08991,0.0877 z"
       id="path167"
       transform="matrix(0.26458333,0,0,0.26458333,32.146873,-2.3812499)" />
  </g>
  <g
     inkscape:groupmode="layer"
     id="layer3"
     inkscape:label="Layer 2">
    <rect
       style="fill:#001cd0;stroke-width:0.264583"
       id="rect14156"
       width="35.454178"
       height="10.869071"
       x="33.932812"
       y="10.872882" />
  </g>
</svg>
